<svg viewBox="0 0 24 26" className="current" xmlns="http://www.w3.org/2000/svg">
<path d="M23.5022 17.5037C23.2204 17.2422 22.8522 17.0935 22.4684 17.0899H22.466C22.0606 17.0887 21.6708 17.2506 21.3841 17.5409L19.1976 19.7442L15.11 15.6242C14.3832 14.8914 13.4237 14.4404 12.3994 14.3493V9.43294H14.3988C16.6069 9.42934 18.3952 7.62664 18.3976 5.40295V4.99995H15.5982C14.3376 5.00115 13.1514 5.60205 12.3994 6.62154V4.19396H13.1982C14.7442 4.19156 15.9964 2.92979 15.9988 1.37297V0.969971H14.3988C13.2246 0.972369 12.1763 1.7124 11.7721 2.82304C11.242 2.16097 10.4432 1.77597 9.5988 1.77597H8V2.17897C8.0012 3.73579 9.25337 4.99756 10.7994 4.99995H11.5994V7.42874C10.8462 6.40805 9.65997 5.80715 8.3994 5.80595H5.6V6.20895C5.6024 8.43264 7.3919 10.2353 9.5988 10.2389H11.5994V14.3493C10.5751 14.4404 9.61439 14.8926 8.88875 15.6266L7.43388 17.0899H5.26896C4.86237 17.0887 4.47256 17.2506 4.18591 17.5409L1.64917 20.098C1.51244 20.2359 1.32534 20.3139 1.13103 20.3139H0V25.1499H17.9046C18.3304 25.1487 18.7358 24.97 19.0249 24.6557L23.5886 19.7094C24.1691 19.0761 24.1307 18.089 23.5022 17.5037ZM15.5982 5.80595H17.5724C17.3697 7.41674 16.0096 8.62454 14.3988 8.62694H12.4234C12.6273 7.01615 13.9862 5.80715 15.5982 5.80595ZM14.3988 1.77597H15.158C14.9673 2.7127 14.1493 3.38676 13.1982 3.38796H12.439C12.6297 2.45003 13.4489 1.77717 14.3988 1.77597ZM10.7994 4.19396C9.84947 4.19276 9.03028 3.5187 8.83958 2.58196H9.5988C10.5487 2.58316 11.3679 3.25603 11.5586 4.19396H10.7994ZM9.5988 9.43294C7.988 9.43054 6.62788 8.22274 6.42399 6.61195H8.3994C10.0114 6.61435 11.3703 7.82214 11.5742 9.43294H9.5988ZM9.45367 16.194C10.8606 14.7799 13.1382 14.7799 14.5451 16.194L18.6327 20.3139L17.2462 21.71C17.1094 21.8479 16.9235 21.9247 16.7292 21.9259H8.06836C7.87406 21.9247 7.68815 21.8479 7.55142 21.71L7.48186 21.6404C7.44707 21.6056 7.41709 21.5673 7.3895 21.5253C7.38471 21.5181 7.38111 21.5097 7.37631 21.5013C7.35592 21.4677 7.33793 21.4329 7.32234 21.397C7.31994 21.391 7.31874 21.3838 7.31634 21.379C7.30195 21.3406 7.29115 21.301 7.28276 21.2602C7.28276 21.2506 7.28276 21.241 7.27916 21.2302C7.26836 21.1571 7.26836 21.0815 7.27916 21.0071C7.27916 20.9976 7.27916 20.9868 7.28276 20.9784C7.29115 20.9376 7.30195 20.898 7.31754 20.8596C7.31994 20.8536 7.31994 20.8476 7.32234 20.8416C7.33793 20.8044 7.35592 20.7697 7.37751 20.7361C7.38231 20.7289 7.38471 20.7205 7.3895 20.7121C7.41709 20.6713 7.44827 20.6329 7.48306 20.5982L7.55142 20.5286C7.68935 20.3907 7.87526 20.3139 8.06836 20.3139H13.1298C13.5364 20.3151 13.9262 20.152 14.2129 19.8617L14.2813 19.7922C14.8786 19.1901 14.8786 18.2137 14.2813 17.6104L14.2129 17.5409C13.9262 17.2506 13.5364 17.0887 13.1298 17.0899H8.56491L9.45367 16.194ZM23.0021 19.1577L18.4396 24.1076C18.3016 24.2575 18.1085 24.3439 17.9046 24.3439H0.8V21.1199H1.13103C1.53763 21.1211 1.92744 20.958 2.21409 20.6677L4.75202 18.1106C4.88875 17.9739 5.07466 17.8959 5.26896 17.8959H13.1298C13.3241 17.8959 13.51 17.9739 13.6468 18.1106L13.7163 18.1802C14.0006 18.468 14.0006 18.9346 13.7163 19.2224L13.6468 19.292C13.51 19.4299 13.3241 19.5067 13.1298 19.5079H8.06836C7.66177 19.5067 7.27196 19.6686 6.98531 19.9589L6.91694 20.0284C6.31964 20.6317 6.31964 21.608 6.91694 22.2101L6.98531 22.2797C7.27196 22.57 7.66177 22.7331 8.06836 22.7319H16.7292C17.1358 22.7331 17.5256 22.57 17.8123 22.2797L21.949 18.1106C22.2345 17.8239 22.6986 17.8239 22.9841 18.1118C23.1268 18.2557 23.2048 18.4536 23.1976 18.6575C23.1976 18.8434 23.128 19.0221 23.0021 19.1577Z" fill="#9FC044"/>
<path d="M23.0021 19.1577L18.4396 24.1076C18.3016 24.2575 18.1085 24.3439 17.9046 24.3439H0.8V21.1199H1.13103C1.53763 21.1211 1.92744 20.958 2.21409 20.6677L4.75202 18.1106C4.88875 17.9739 5.07466 17.8959 5.26896 17.8959H13.1298C13.3241 17.8959 13.51 17.9739 13.6468 18.1106L13.7163 18.1802C14.0006 18.468 14.0006 18.9346 13.7163 19.2224L13.6468 19.292C13.51 19.4299 13.3241 19.5067 13.1298 19.5079H8.06836C7.66177 19.5067 7.27196 19.6686 6.98531 19.9589L6.91694 20.0284C6.31964 20.6317 6.31964 21.608 6.91694 22.2101L6.98531 22.2797C7.27196 22.57 7.66177 22.7331 8.06836 22.7319H16.7292C17.1358 22.7331 17.5256 22.57 17.8123 22.2797L21.949 18.1106C22.2345 17.8239 22.6986 17.8239 22.9841 18.1118C23.1268 18.2557 23.2048 18.4536 23.1976 18.6575C23.1976 18.8434 23.128 19.0221 23.0021 19.1577Z" fill="#9FC044"/>
</svg>
