<svg width="117" height="24" viewBox="0 0 117 24" fill="none" xmlns="http://www.w3.org/2000/svg">
<path d="M6.11203 23.256C4.3627 23.256 2.96537 22.776 1.92003 21.816C0.896033 20.856 0.384033 19.5653 0.384033 17.944C0.384033 17.7733 0.405367 17.4747 0.448033 17.048L0.704033 14.968C0.725367 14.8613 0.768033 14.776 0.832033 14.712C0.917367 14.6267 1.01337 14.584 1.12003 14.584H5.53603C5.6427 14.584 5.72803 14.6267 5.79203 14.712C5.85603 14.776 5.87737 14.8613 5.85603 14.968L5.60003 17.112L5.56803 17.432C5.56803 17.816 5.66403 18.1253 5.85603 18.36C6.06937 18.5947 6.3467 18.712 6.68803 18.712C7.07203 18.712 7.4027 18.5627 7.68003 18.264C7.9787 17.9653 8.14937 17.5813 8.19203 17.112L10.176 0.983994C10.1974 0.877327 10.24 0.791993 10.304 0.727993C10.3894 0.64266 10.4854 0.599993 10.592 0.599993H15.008C15.1147 0.599993 15.2 0.64266 15.264 0.727993C15.328 0.791993 15.3494 0.877327 15.328 0.983994L13.376 17.048C13.1414 18.904 12.352 20.408 11.008 21.56C9.68537 22.6907 8.05337 23.256 6.11203 23.256Z" fill="#9FC044"/>
<path d="M21.0645 23.256C19.2512 23.256 17.8219 22.7653 16.7765 21.784C15.7525 20.7813 15.2405 19.416 15.2405 17.688C15.2405 17.4533 15.2619 17.1013 15.3045 16.632L16.4885 6.96799C16.7445 4.94133 17.5339 3.33066 18.8565 2.13599C20.2005 0.941327 21.8752 0.343994 23.8805 0.343994C25.6939 0.343994 27.1232 0.845327 28.1685 1.84799C29.2352 2.85066 29.7685 4.21599 29.7685 5.94399C29.7685 6.15733 29.7472 6.49866 29.7045 6.96799L28.4885 16.632C28.2539 18.6587 27.4539 20.2693 26.0885 21.464C24.7445 22.6587 23.0699 23.256 21.0645 23.256ZM21.6405 18.712C22.0885 18.712 22.4619 18.552 22.7605 18.232C23.0592 17.8907 23.2512 17.432 23.3365 16.856L24.5525 6.74399C24.5739 6.63733 24.5845 6.49866 24.5845 6.32799C24.5845 5.87999 24.4779 5.52799 24.2645 5.27199C24.0512 5.01599 23.7419 4.88799 23.3365 4.88799C22.8885 4.88799 22.5152 5.05866 22.2165 5.39999C21.9179 5.74133 21.7365 6.18933 21.6725 6.74399L20.4245 16.856L20.3925 17.208C20.3925 17.6773 20.4992 18.0507 20.7125 18.328C20.9259 18.584 21.2352 18.712 21.6405 18.712Z" fill="#9FC044"/>
<path d="M35.9083 23.256C34.0949 23.256 32.6656 22.7653 31.6203 21.784C30.5963 20.7813 30.0843 19.416 30.0843 17.688C30.0843 17.4533 30.1056 17.1013 30.1483 16.632L31.3323 6.96799C31.5883 4.94133 32.3776 3.33066 33.7003 2.13599C35.0443 0.941327 36.719 0.343994 38.7243 0.343994C40.5376 0.343994 41.9669 0.845327 43.0123 1.84799C44.0789 2.85066 44.6123 4.21599 44.6123 5.94399C44.6123 6.15733 44.5909 6.49866 44.5483 6.96799L43.3323 16.632C43.0976 18.6587 42.2976 20.2693 40.9323 21.464C39.5883 22.6587 37.9136 23.256 35.9083 23.256ZM36.4843 18.712C36.9323 18.712 37.3056 18.552 37.6043 18.232C37.9029 17.8907 38.0949 17.432 38.1803 16.856L39.3963 6.74399C39.4176 6.63733 39.4283 6.49866 39.4283 6.32799C39.4283 5.87999 39.3216 5.52799 39.1083 5.27199C38.895 5.01599 38.5856 4.88799 38.1803 4.88799C37.7323 4.88799 37.359 5.05866 37.0603 5.39999C36.7616 5.74133 36.5803 6.18933 36.5163 6.74399L35.2683 16.856L35.2363 17.208C35.2363 17.6773 35.3429 18.0507 35.5563 18.328C35.7696 18.584 36.0789 18.712 36.4843 18.712Z" fill="#9FC044"/>
<path d="M54.24 0.599993C55.8614 0.599993 57.152 1.13333 58.112 2.19999C59.072 3.24533 59.552 4.65333 59.552 6.42399C59.552 6.93599 59.5307 7.33066 59.488 7.60799C59.232 9.63466 58.4854 11.2667 57.248 12.504C56.032 13.72 54.5494 14.328 52.8 14.328H50.784C50.6987 14.328 50.6347 14.3813 50.592 14.488L49.6 22.616C49.5787 22.7227 49.5254 22.8187 49.44 22.904C49.376 22.968 49.2907 23 49.184 23H44.768C44.6614 23 44.576 22.968 44.512 22.904C44.448 22.8187 44.4267 22.7227 44.448 22.616L47.104 0.983994C47.1254 0.877327 47.168 0.791993 47.232 0.727993C47.3174 0.64266 47.4134 0.599993 47.52 0.599993H54.24ZM52.16 10.232C52.8 10.232 53.3227 9.96533 53.728 9.43199C54.1334 8.87733 54.336 8.10933 54.336 7.12799C54.336 6.48799 54.1974 5.99733 53.92 5.65599C53.6427 5.31466 53.2587 5.14399 52.768 5.14399H51.904C51.7974 5.14399 51.744 5.19733 51.744 5.30399L51.136 10.072C51.136 10.1787 51.1787 10.232 51.264 10.232H52.16Z" fill="#9FC044"/>
<path d="M62.5808 23.256C60.8315 23.256 59.4341 22.776 58.3888 21.816C57.3648 20.856 56.8528 19.5653 56.8528 17.944C56.8528 17.7733 56.8741 17.4747 56.9168 17.048L57.1728 14.968C57.1941 14.8613 57.2368 14.776 57.3008 14.712C57.3861 14.6267 57.4821 14.584 57.5888 14.584H62.0048C62.1115 14.584 62.1968 14.6267 62.2608 14.712C62.3248 14.776 62.3461 14.8613 62.3248 14.968L62.0688 17.112L62.0368 17.432C62.0368 17.816 62.1328 18.1253 62.3248 18.36C62.5381 18.5947 62.8155 18.712 63.1568 18.712C63.5408 18.712 63.8715 18.5627 64.1488 18.264C64.4475 17.9653 64.6181 17.5813 64.6608 17.112L66.6448 0.983994C66.6661 0.877327 66.7088 0.791993 66.7728 0.727993C66.8581 0.64266 66.9541 0.599993 67.0608 0.599993H71.4768C71.5835 0.599993 71.6688 0.64266 71.7328 0.727993C71.7968 0.791993 71.8181 0.877327 71.7968 0.983994L69.8448 17.048C69.6101 18.904 68.8208 20.408 67.4768 21.56C66.1541 22.6907 64.5221 23.256 62.5808 23.256Z" fill="#9FC044"/>
<path d="M77.5333 23.256C75.72 23.256 74.2906 22.7653 73.2453 21.784C72.2213 20.7813 71.7093 19.416 71.7093 17.688C71.7093 17.4533 71.7306 17.1013 71.7733 16.632L72.9573 6.96799C73.2133 4.94133 74.0026 3.33066 75.3253 2.13599C76.6693 0.941327 78.3439 0.343994 80.3493 0.343994C82.1626 0.343994 83.5919 0.845327 84.6373 1.84799C85.7039 2.85066 86.2373 4.21599 86.2373 5.94399C86.2373 6.15733 86.216 6.49866 86.1733 6.96799L84.9573 16.632C84.7226 18.6587 83.9226 20.2693 82.5573 21.464C81.2133 22.6587 79.5386 23.256 77.5333 23.256ZM78.1093 18.712C78.5573 18.712 78.9306 18.552 79.2293 18.232C79.528 17.8907 79.7199 17.432 79.8053 16.856L81.0213 6.74399C81.0426 6.63733 81.0533 6.49866 81.0533 6.32799C81.0533 5.87999 80.9466 5.52799 80.7333 5.27199C80.52 5.01599 80.2106 4.88799 79.8053 4.88799C79.3573 4.88799 78.9839 5.05866 78.6853 5.39999C78.3866 5.74133 78.2053 6.18933 78.1413 6.74399L76.8933 16.856L76.8613 17.208C76.8613 17.6773 76.9679 18.0507 77.1813 18.328C77.3946 18.584 77.7039 18.712 78.1093 18.712Z" fill="#9FC044"/>
<path d="M92.377 23.256C90.5637 23.256 89.1344 22.7653 88.089 21.784C87.065 20.7813 86.553 19.416 86.553 17.688C86.553 17.4533 86.5744 17.1013 86.617 16.632L87.801 6.96799C88.057 4.94133 88.8464 3.33066 90.169 2.13599C91.513 0.941327 93.1877 0.343994 95.193 0.343994C97.0064 0.343994 98.4357 0.845327 99.481 1.84799C100.548 2.85066 101.081 4.21599 101.081 5.94399C101.081 6.15733 101.06 6.49866 101.017 6.96799L99.801 16.632C99.5664 18.6587 98.7664 20.2693 97.401 21.464C96.057 22.6587 94.3824 23.256 92.377 23.256ZM92.953 18.712C93.401 18.712 93.7744 18.552 94.073 18.232C94.3717 17.8907 94.5637 17.432 94.649 16.856L95.865 6.74399C95.8864 6.63733 95.897 6.49866 95.897 6.32799C95.897 5.87999 95.7904 5.52799 95.577 5.27199C95.3637 5.01599 95.0544 4.88799 94.649 4.88799C94.201 4.88799 93.8277 5.05866 93.529 5.39999C93.2304 5.74133 93.049 6.18933 92.985 6.74399L91.737 16.856L91.705 17.208C91.705 17.6773 91.8117 18.0507 92.025 18.328C92.2384 18.584 92.5477 18.712 92.953 18.712Z" fill="#9FC044"/>
<path d="M110.709 0.599993C112.33 0.599993 113.621 1.13333 114.581 2.19999C115.541 3.24533 116.021 4.65333 116.021 6.42399C116.021 6.93599 115.999 7.33066 115.957 7.60799C115.701 9.63466 114.954 11.2667 113.717 12.504C112.501 13.72 111.018 14.328 109.269 14.328H107.253C107.167 14.328 107.103 14.3813 107.061 14.488L106.069 22.616C106.047 22.7227 105.994 22.8187 105.909 22.904C105.845 22.968 105.759 23 105.653 23H101.237C101.13 23 101.045 22.968 100.981 22.904C100.917 22.8187 100.895 22.7227 100.917 22.616L103.573 0.983994C103.594 0.877327 103.637 0.791993 103.701 0.727993C103.786 0.64266 103.882 0.599993 103.989 0.599993H110.709ZM108.629 10.232C109.269 10.232 109.791 9.96533 110.197 9.43199C110.602 8.87733 110.805 8.10933 110.805 7.12799C110.805 6.48799 110.666 5.99733 110.389 5.65599C110.111 5.31466 109.727 5.14399 109.237 5.14399H108.373C108.266 5.14399 108.213 5.19733 108.213 5.30399L107.605 10.072C107.605 10.1787 107.647 10.232 107.733 10.232H108.629Z" fill="#9FC044"/>
</svg>
