<svg width="250" height="43" viewBox="0 0 250 43" fill="none" xmlns="http://www.w3.org/2000/svg">
<path d="M41.0819 29.274C40.5892 28.8111 39.9455 28.5478 39.2746 28.5414H39.2705C38.5618 28.5393 37.8804 28.826 37.3794 29.3399L33.5574 33.241L26.4123 25.9463C25.1418 24.6488 23.4646 23.8503 21.6741 23.6889V14.9842H25.1691C29.0288 14.9779 32.1548 11.7861 32.159 7.84888V7.13535H27.2656C25.0621 7.13747 22.9887 8.2014 21.6741 10.0065V5.70828H23.0704C25.7729 5.70403 27.9617 3.46999 27.9659 0.713535V0H25.1691C23.1165 0.00424696 21.2842 1.31452 20.5776 3.28099C19.651 2.10875 18.2547 1.42707 16.7787 1.42707H13.984V2.1406C13.9861 4.89706 16.1749 7.1311 18.8773 7.13535H20.2757V11.4357C18.9591 9.62847 16.8856 8.56454 14.6821 8.56242H9.78879V9.27595C9.79298 13.2131 12.921 16.4049 16.7787 16.4113H20.2757V23.6889C18.4853 23.8503 16.8059 24.6509 15.5375 25.9506L12.9944 28.5414H9.21014C8.49941 28.5393 7.81803 28.826 7.31696 29.3399L2.88275 33.8674C2.64375 34.1116 2.31669 34.2497 1.97705 34.2497H0V42.8121H31.2973C32.0416 42.81 32.7502 42.4935 33.2555 41.9372L41.2328 33.1794C42.2476 32.0581 42.1805 30.3104 41.0819 29.274ZM27.2656 8.56242H30.7165C30.3622 11.4144 27.9847 13.5529 25.1691 13.5572H21.7161C22.0725 10.7051 24.4479 8.56454 27.2656 8.56242ZM25.1691 1.42707H26.4962C26.1628 3.08561 24.733 4.27908 23.0704 4.28121H21.7433C22.0767 2.62054 23.5086 1.42919 25.1691 1.42707ZM18.8773 5.70828C17.2169 5.70615 15.7849 4.51268 15.4516 2.85414H16.7787C18.4391 2.85626 19.8711 4.04761 20.2044 5.70828H18.8773ZM16.7787 14.9842C13.963 14.98 11.5855 12.8415 11.2291 9.98949H14.6821C17.4999 9.99373 19.8753 12.1322 20.2317 14.9842H16.7787ZM16.525 26.9551C18.9843 24.4513 22.9656 24.4513 25.4248 26.9551L32.5699 34.2497L30.1463 36.7216C29.9073 36.9658 29.5823 37.1017 29.2427 37.1038H14.1035C13.7638 37.1017 13.4389 36.9658 13.1999 36.7216L13.0783 36.5984C13.0175 36.5368 12.9651 36.4689 12.9168 36.3945C12.9085 36.3818 12.9022 36.3669 12.8938 36.3521C12.8581 36.2926 12.8267 36.231 12.7994 36.1673C12.7952 36.1567 12.7931 36.1439 12.7889 36.1354C12.7638 36.0675 12.7449 35.9974 12.7302 35.9252C12.7302 35.9082 12.7302 35.8912 12.724 35.8721C12.7051 35.7426 12.7051 35.6088 12.724 35.4771C12.724 35.4601 12.724 35.441 12.7302 35.4262C12.7449 35.354 12.7638 35.2839 12.791 35.2159C12.7952 35.2053 12.7952 35.1947 12.7994 35.1841C12.8267 35.1182 12.8581 35.0566 12.8959 34.9972C12.9043 34.9844 12.9085 34.9696 12.9168 34.9547C12.9651 34.8825 13.0196 34.8146 13.0804 34.753L13.1999 34.6298C13.441 34.3856 13.7659 34.2497 14.1035 34.2497H22.9509C23.6617 34.2518 24.343 33.963 24.8441 33.4491L24.9636 33.3259C26.0077 32.2598 26.0077 30.5312 24.9636 29.463L24.8441 29.3399C24.343 28.826 23.6617 28.5393 22.9509 28.5414H14.9715L16.525 26.9551ZM40.2076 32.2025L32.2323 40.9667C31.9912 41.2321 31.6537 41.385 31.2973 41.385H1.3984V35.6767H1.97705C2.68778 35.6789 3.36915 35.3901 3.87023 34.8761L8.30653 30.3486C8.54553 30.1065 8.8705 29.9685 9.21014 29.9685H22.9509C23.2906 29.9685 23.6155 30.1065 23.8545 30.3486L23.9761 30.4718C24.473 30.9814 24.473 31.8075 23.9761 32.3172L23.8545 32.4404C23.6155 32.6846 23.2906 32.8205 22.9509 32.8226H14.1035C13.3928 32.8205 12.7114 33.1072 12.2103 33.6211L12.0908 33.7443C11.0467 34.8124 11.0467 36.5411 12.0908 37.6071L12.2103 37.7303C12.7114 38.2442 13.3928 38.533 14.1035 38.5309H29.2427C29.9534 38.533 30.6348 38.2442 31.1358 37.7303L38.3668 30.3486C38.8658 29.841 39.6772 29.841 40.1762 30.3507C40.4257 30.6055 40.5619 30.9559 40.5494 31.317C40.5494 31.6461 40.4278 31.9625 40.2076 32.2025Z" fill="#9FC044"/>
<path d="M40.2076 32.2025L32.2323 40.9667C31.9912 41.2321 31.6537 41.385 31.2973 41.385H1.3984V35.6767H1.97705C2.68778 35.6789 3.36915 35.3901 3.87023 34.8761L8.30653 30.3486C8.54553 30.1065 8.8705 29.9685 9.21014 29.9685H22.9509C23.2906 29.9685 23.6155 30.1065 23.8545 30.3486L23.9761 30.4718C24.473 30.9814 24.473 31.8075 23.9761 32.3172L23.8545 32.4404C23.6155 32.6846 23.2906 32.8205 22.9509 32.8226H14.1035C13.3928 32.8205 12.7114 33.1072 12.2103 33.6211L12.0908 33.7443C11.0467 34.8124 11.0467 36.5411 12.0908 37.6071L12.2103 37.7303C12.7114 38.2442 13.3928 38.533 14.1035 38.5309H29.2427C29.9534 38.533 30.6348 38.2442 31.1358 37.7303L38.3668 30.3486C38.8658 29.841 39.6772 29.841 40.1762 30.3507C40.4257 30.6055 40.5619 30.9559 40.5494 31.317C40.5494 31.6461 40.4278 31.9625 40.2076 32.2025Z" fill="#9FC044"/>
<path d="M57.8797 43C54.8219 43 52.3793 42.1501 50.5521 40.4504C48.7622 38.7506 47.8672 36.4654 47.8672 33.5948C47.8672 33.2926 47.9045 32.7638 47.9791 32.0083L48.4265 28.3256C48.4638 28.1367 48.5384 27.9856 48.6503 27.8723C48.7995 27.7212 48.9673 27.6457 49.1537 27.6457H56.8729C57.0593 27.6457 57.2085 27.7212 57.3204 27.8723C57.4322 27.9856 57.4695 28.1367 57.4322 28.3256L56.9847 32.1216L56.9288 32.6882C56.9288 33.3681 57.0966 33.9158 57.4322 34.3313C57.8051 34.7468 58.2899 34.9545 58.8866 34.9545C59.5578 34.9545 60.1358 34.6901 60.6206 34.1613C61.1427 33.6325 61.441 32.9526 61.5156 32.1216L64.9836 3.56597C65.0209 3.37711 65.0955 3.22602 65.2073 3.11271C65.3565 2.96162 65.5243 2.88607 65.7108 2.88607H73.4299C73.6164 2.88607 73.7655 2.96162 73.8774 3.11271C73.9893 3.22602 74.0266 3.37711 73.9893 3.56597L70.5772 32.0083C70.167 35.2945 68.7872 37.9574 66.4379 39.9971C64.1259 41.999 61.2732 43 57.8797 43Z" fill="#9FC044"/>
<path d="M84.0167 43C80.847 43 78.3485 42.1312 76.5212 40.3937C74.7313 38.6184 73.8363 36.201 73.8363 33.1415C73.8363 32.726 73.8736 32.1028 73.9482 31.2718L76.0178 14.161C76.4653 10.5727 77.8451 7.7209 80.1571 5.60566C82.5064 3.49043 85.4337 2.43281 88.939 2.43281C92.1087 2.43281 94.6072 3.32045 96.4344 5.09574C98.299 6.87103 99.2312 9.28844 99.2312 12.348C99.2312 12.7257 99.1939 13.33 99.1194 14.161L96.9938 31.2718C96.5836 34.8601 95.1852 37.7119 92.7986 39.8271C90.4493 41.9424 87.522 43 84.0167 43ZM85.0235 34.9545C85.8066 34.9545 86.4592 34.6713 86.9813 34.1047C87.5033 33.5003 87.8389 32.6882 87.9881 31.6684L90.1137 13.7644C90.151 13.5756 90.1696 13.33 90.1696 13.0279C90.1696 12.2347 89.9832 11.6114 89.6103 11.1582C89.2373 10.7049 88.6966 10.4783 87.9881 10.4783C87.205 10.4783 86.5524 10.7804 86.0304 11.3848C85.5083 11.9891 85.1913 12.7824 85.0794 13.7644L82.8979 31.6684L82.842 32.2916C82.842 33.1226 83.0285 33.7836 83.4014 34.2747C83.7743 34.7279 84.315 34.9545 85.0235 34.9545Z" fill="#9FC044"/>
<path d="M109.964 43C106.794 43 104.295 42.1312 102.468 40.3937C100.678 38.6184 99.7832 36.201 99.7832 33.1415C99.7832 32.726 99.8205 32.1028 99.895 31.2718L101.965 14.161C102.412 10.5727 103.792 7.7209 106.104 5.60566C108.453 3.49043 111.381 2.43281 114.886 2.43281C118.056 2.43281 120.554 3.32045 122.381 5.09574C124.246 6.87103 125.178 9.28844 125.178 12.348C125.178 12.7257 125.141 13.33 125.066 14.161L122.941 31.2718C122.53 34.8601 121.132 37.7119 118.745 39.8271C116.396 41.9424 113.469 43 109.964 43ZM110.97 34.9545C111.753 34.9545 112.406 34.6713 112.928 34.1047C113.45 33.5003 113.786 32.6882 113.935 31.6684L116.061 13.7644C116.098 13.5756 116.116 13.33 116.116 13.0279C116.116 12.2347 115.93 11.6114 115.557 11.1582C115.184 10.7049 114.643 10.4783 113.935 10.4783C113.152 10.4783 112.499 10.7804 111.977 11.3848C111.455 11.9891 111.138 12.7824 111.026 13.7644L108.845 31.6684L108.789 32.2916C108.789 33.1226 108.975 33.7836 109.348 34.2747C109.721 34.7279 110.262 34.9545 110.97 34.9545Z" fill="#9FC044"/>
<path d="M142.007 2.88607C144.841 2.88607 147.098 3.83038 148.776 5.71898C150.454 7.56981 151.293 10.0628 151.293 13.1978C151.293 14.1044 151.255 14.8032 151.181 15.2942C150.733 18.8825 149.428 21.7721 147.265 23.9629C145.14 26.1159 142.548 27.1924 139.49 27.1924H135.966C135.817 27.1924 135.705 27.2868 135.631 27.4757L133.897 41.8668C133.859 42.0557 133.766 42.2257 133.617 42.3768C133.505 42.4901 133.356 42.5467 133.169 42.5467H125.45C125.264 42.5467 125.115 42.4901 125.003 42.3768C124.891 42.2257 124.854 42.0557 124.891 41.8668L129.534 3.56597C129.571 3.37711 129.646 3.22602 129.757 3.11271C129.907 2.96162 130.074 2.88607 130.261 2.88607H142.007ZM138.372 19.9402C139.49 19.9402 140.404 19.468 141.112 18.5237C141.821 17.5416 142.175 16.1818 142.175 14.4443C142.175 13.3112 141.933 12.4424 141.448 11.838C140.963 11.2337 140.292 10.9315 139.434 10.9315H137.924C137.738 10.9315 137.644 11.026 137.644 11.2148L136.582 19.6569C136.582 19.8457 136.656 19.9402 136.805 19.9402H138.372Z" fill="#9FC044"/>
<path d="M156.587 43C153.529 43 151.087 42.1501 149.259 40.4504C147.469 38.7506 146.574 36.4654 146.574 33.5948C146.574 33.2926 146.612 32.7638 146.686 32.0083L147.134 28.3256C147.171 28.1367 147.246 27.9856 147.358 27.8723C147.507 27.7212 147.675 27.6457 147.861 27.6457H155.58C155.767 27.6457 155.916 27.7212 156.028 27.8723C156.14 27.9856 156.177 28.1367 156.139 28.3256L155.692 32.1216L155.636 32.6882C155.636 33.3681 155.804 33.9158 156.139 34.3313C156.512 34.7468 156.997 34.9545 157.594 34.9545C158.265 34.9545 158.843 34.6901 159.328 34.1613C159.85 33.6325 160.148 32.9526 160.223 32.1216L163.691 3.56597C163.728 3.37711 163.803 3.22602 163.915 3.11271C164.064 2.96162 164.232 2.88607 164.418 2.88607H172.137C172.324 2.88607 172.473 2.96162 172.585 3.11271C172.697 3.22602 172.734 3.37711 172.697 3.56597L169.284 32.0083C168.874 35.2945 167.494 37.9574 165.145 39.9971C162.833 41.999 159.98 43 156.587 43Z" fill="#9FC044"/>
<path d="M182.724 43C179.554 43 177.056 42.1312 175.229 40.3937C173.439 38.6184 172.544 36.201 172.544 33.1415C172.544 32.726 172.581 32.1028 172.655 31.2718L174.725 14.161C175.173 10.5727 176.552 7.7209 178.864 5.60566C181.214 3.49043 184.141 2.43281 187.646 2.43281C190.816 2.43281 193.314 3.32045 195.142 5.09574C197.006 6.87103 197.939 9.28844 197.939 12.348C197.939 12.7257 197.901 13.33 197.827 14.161L195.701 31.2718C195.291 34.8601 193.892 37.7119 191.506 39.8271C189.157 41.9424 186.229 43 182.724 43ZM183.731 34.9545C184.514 34.9545 185.166 34.6713 185.689 34.1047C186.211 33.5003 186.546 32.6882 186.695 31.6684L188.821 13.7644C188.858 13.5756 188.877 13.33 188.877 13.0279C188.877 12.2347 188.69 11.6114 188.318 11.1582C187.945 10.7049 187.404 10.4783 186.695 10.4783C185.912 10.4783 185.26 10.7804 184.738 11.3848C184.216 11.9891 183.899 12.7824 183.787 13.7644L181.605 31.6684L181.549 32.2916C181.549 33.1226 181.736 33.7836 182.109 34.2747C182.482 34.7279 183.022 34.9545 183.731 34.9545Z" fill="#9FC044"/>
<path d="M208.671 43C205.501 43 203.003 42.1312 201.175 40.3937C199.385 38.6184 198.49 36.201 198.49 33.1415C198.49 32.726 198.528 32.1028 198.602 31.2718L200.672 14.161C201.119 10.5727 202.499 7.7209 204.811 5.60566C207.161 3.49043 210.088 2.43281 213.593 2.43281C216.763 2.43281 219.261 3.32045 221.089 5.09574C222.953 6.87103 223.885 9.28844 223.885 12.348C223.885 12.7257 223.848 13.33 223.773 14.161L221.648 31.2718C221.238 34.8601 219.839 37.7119 217.453 39.8271C215.103 41.9424 212.176 43 208.671 43ZM209.678 34.9545C210.461 34.9545 211.113 34.6713 211.635 34.1047C212.157 33.5003 212.493 32.6882 212.642 31.6684L214.768 13.7644C214.805 13.5756 214.824 13.33 214.824 13.0279C214.824 12.2347 214.637 11.6114 214.264 11.1582C213.891 10.7049 213.351 10.4783 212.642 10.4783C211.859 10.4783 211.207 10.7804 210.684 11.3848C210.162 11.9891 209.845 12.7824 209.734 13.7644L207.552 31.6684L207.496 32.2916C207.496 33.1226 207.683 33.7836 208.055 34.2747C208.428 34.7279 208.969 34.9545 209.678 34.9545Z" fill="#9FC044"/>
<path d="M240.715 2.88607C243.549 2.88607 245.805 3.83038 247.483 5.71898C249.161 7.56981 250 10.0628 250 13.1978C250 14.1044 249.963 14.8032 249.888 15.2942C249.441 18.8825 248.135 21.7721 245.973 23.9629C243.847 26.1159 241.255 27.1924 238.198 27.1924H234.674C234.524 27.1924 234.413 27.2868 234.338 27.4757L232.604 41.8668C232.567 42.0557 232.473 42.2257 232.324 42.3768C232.212 42.4901 232.063 42.5467 231.877 42.5467H224.158C223.971 42.5467 223.822 42.4901 223.71 42.3768C223.598 42.2257 223.561 42.0557 223.598 41.8668L228.241 3.56597C228.278 3.37711 228.353 3.22602 228.465 3.11271C228.614 2.96162 228.782 2.88607 228.968 2.88607H240.715ZM237.079 19.9402C238.198 19.9402 239.111 19.468 239.82 18.5237C240.528 17.5416 240.882 16.1818 240.882 14.4443C240.882 13.3112 240.64 12.4424 240.155 11.838C239.671 11.2337 238.999 10.9315 238.142 10.9315H236.631C236.445 10.9315 236.352 11.026 236.352 11.2148L235.289 19.6569C235.289 19.8457 235.363 19.9402 235.513 19.9402H237.079Z" fill="#9FC044"/>
</svg>
